PathFileType	3	(X/Y/Z)	F:\ViconData\AntennenMessung\Messung1\Session1\ID02.trc
DataRate	CameraRate	NumFrames	NumMarkers	Units	OrigDataRate	OrigDataStartFrame	OrigNumFrames
120.0	120.0	5	70	mm	120.0	578	924	
Frame#	Time	Ashort			Along			Atop			A4			Bshort			Blong			Btop			B4			Cshort			Clong			Ctop			C4			Dshort			Dlong			Dtop			D4			Eshort			Elong			Etop			E4			Fshort			Flong			Ftop			F4			Gshort			Glong			Gtop			G4			Hshort			Hlong			Htop			H4			I1			I2			I3			I4			I5			WandAshort			WandAlong			WandAtop			WandA4			WandA15			WandBshort			WandB4			WandB5			WandBtop			WandBlong			WandCshort			WandClong			WandCtop			WandC4			WandC5			Acenter			Aantenna			Bcenter			Bantenna			Ccenter			Cantenna			Dcenter			Dantenna			Ecenter			Eantenna			Fcenter			Fantenna			Gcenter			Gantenna			Hcenter			Hantenna			Icenter			Iantenna			
		X1	Y1	Z1	X2	Y2	Z2	X3	Y3	Z3	X4	Y4	Z4	X5	Y5	Z5	X6	Y6	Z6	X7	Y7	Z7	X8	Y8	Z8	X9	Y9	Z9	X10	Y10	Z10	X11	Y11	Z11	X12	Y12	Z12	X13	Y13	Z13	X14	Y14	Z14	X15	Y15	Z15	X16	Y16	Z16	X17	Y17	Z17	X18	Y18	Z18	X19	Y19	Z19	X20	Y20	Z20	X21	Y21	Z21	X22	Y22	Z22	X23	Y23	Z23	X24	Y24	Z24	X25	Y25	Z25	X26	Y26	Z26	X27	Y27	Z27	X28	Y28	Z28	X29	Y29	Z29	X30	Y30	Z30	X31	Y31	Z31	X32	Y32	Z32	X33	Y33	Z33	X34	Y34	Z34	X35	Y35	Z35	X36	Y36	Z36	X37	Y37	Z37	X38	Y38	Z38	X39	Y39	Z39	X40	Y40	Z40	X41	Y41	Z41	X42	Y42	Z42	X43	Y43	Z43	X44	Y44	Z44	X45	Y45	Z45	X46	Y46	Z46	X47	Y47	Z47	X48	Y48	Z48	X49	Y49	Z49	X50	Y50	Z50	X51	Y51	Z51	X52	Y52	Z52	X53	Y53	Z53	X54	Y54	Z54	X55	Y55	Z55	X56	Y56	Z56	X57	Y57	Z57	X58	Y58	Z58	X59	Y59	Z59	X60	Y60	Z60	X61	Y61	Z61	X62	Y62	Z62	X63	Y63	Z63	X64	Y64	Z64	X65	Y65	Z65	X66	Y66	Z66	X67	Y67	Z67	X68	Y68	Z68	X69	Y69	Z69	X70	Y70	Z70	
578	4.8083333	-1038.2393	214.28316	-1644.2941	-1109.171	203.15175	-1599.6047	-1063.5566	173.14078	-1625.6497	-1054.1251	262.03198	-1634.9426	-1353.0519	234.74812	1003.9717	-1281.2731	227.0882	1052.3214	-1323.0403	194.15636	1020.8212	-1284.5004	287.92404	1052.7424	813.97119	187.63499	1209.4419	892.41467	178.45982	1179.2509	844.60291	145.27908	1198.2036	860.6228	292.28876	1167.1937	1115.8058	209.74162	-1401.7129	1056.3397	194.04984	-1460.1421	1095.0231	162.16161	-1423.9075	1069.9078	238.6467	-1425.9106	-1204.476	1685.9385	-1563.3163	-1129.0822	1688.2194	-1606.0837	-1173.0643	1724.3794	-1582.0005	-1133.5201	1581.0631	-1603.4705	-1239.7094	1699.2532	1119.2537	-1309.3755	1698.778	1071.7382	-1270.3301	1736.1431	1096.6423	-1244.7205	1593.6749	1106.5265	988.87024	1664.238	1162.2944	957.58618	1700.3673	1183.6582	922.54156	1662.1211	1214.8866	939.75293	1659.3696	1159.9178	999.26324	1668.5298	-1579.4763	1058.9231	1670.1567	-1518.6194	1025.0776	1708.0116	-1551.1255	1059.3104	1672.1935	-1585.5878	-542.0307	1144.0944	-298.22476	-545.73938	1145.1682	-213.92351	-544.14484	1181.5503	-260.92606	-575.74683	1142.3884	-262.79523	-496.0806	1146.1549	-258.85141																																														-1068.8536	209.47878	-1625.0059	-1074.4783	248.065	-1624.3223	-1321.8645	231.41992	1024.9794	-1320.6421	270.16031	1029.3022	848.32379	183.61693	1196.2205	852.0863	222.38318	1194.2151	1088.7079	202.59109	-1428.3381	1082.7241	240.89995	-1432.5365	-1171.8356	1686.9258	-1581.8315	-1170.5566	1647.9471	-1581.656	-1270.9609	1699.0399	1097.9385	-1271.6237	1660.0693	1099.3	953.22894	1705.3993	1186.6337	973.14008	1733.4797	1168.3022	1026.6042	1669.2753	-1551.5867	1028.1401	1630.3082	-1552.0505	-543.69312	1144.5756	-260.43518	-543.2168	1105.582	-259.91754
579	4.8166667	-1038.23	214.40123	-1644.2205	-1109.2687	203.37787	-1599.5408	-1063.7222	172.68365	-1625.3893	-1054.1564	262.07343	-1634.9703	-1353.0771	234.93869	1004.0126	-1281.3068	227.00804	1052.4175	-1322.9941	194.17551	1020.7924	-1284.4712	287.86136	1052.6809	813.98505	187.64549	1209.4387	892.40308	178.37381	1179.2722	844.58289	145.26952	1198.2097	860.75592	292.48569	1167.1847	1115.8168	209.75781	-1401.7217	1056.2943	194.0192	-1460.1313	1094.9943	162.10132	-1423.9424	1069.8855	238.61299	-1425.9022	-1204.5453	1686.005	-1563.1794	-1129.1312	1688.3391	-1606.6031	-1173.1271	1724.3011	-1581.8961	-1133.522	1581.0774	-1603.4894	-1239.6921	1699.2318	1119.2491	-1309.4508	1698.8948	1071.7914	-1270.3473	1736.1659	1096.6521	-1244.6874	1593.7191	1106.6035	988.85089	1664.2521	1162.2854	957.58447	1700.3771	1183.6868	922.64807	1662.0376	1214.8361	939.83868	1659.3867	1159.9174	999.26666	1668.5471	-1579.484	1058.7891	1669.9823	-1518.6544	1025.0889	1708.0148	-1551.1202	1059.3181	1672.2087	-1585.5782	-542.03723	1144.1108	-298.2291	-545.73663	1145.1644	-213.92345	-544.15057	1181.5554	-260.92328	-575.79932	1142.5527	-262.77835	-496.08817	1146.1616	-258.84702																																														-1069.0891	209.61267	-1624.8115	-1074.6975	248.20259	-1624.2078	-1321.7875	231.48119	1025.1155	-1320.5352	270.20193	1029.6028	848.34729	183.58269	1196.2198	852.15582	222.34406	1194.2065	1088.6489	202.57422	-1428.3816	1082.6436	240.87935	-1432.5831	-1171.9895	1687.0126	-1581.925	-1170.8005	1648.0306	-1581.9554	-1271.0347	1699.0803	1097.9263	-1271.7572	1660.11	1099.2651	953.3183	1705.3062	1186.6068	973.22711	1733.3929	1168.2825	1026.5334	1669.2045	-1551.6182	1027.984	1630.2347	-1552.1183	-543.69537	1144.583	-260.44122	-543.21527	1105.5892	-259.93283
580	4.825	-1038.26	214.43124	-1644.2432	-1109.1743	203.17693	-1599.6472	-1063.6415	172.69	-1625.4476	-1054.1562	262.04721	-1634.9705	-1353.0219	234.80049	1003.9504	-1281.295	226.94464	1052.3439	-1323.0741	194.11974	1020.8449	-1284.4954	287.89865	1052.6982	814.00757	187.57268	1209.3593	892.39111	178.37971	1179.3062	844.69592	145.18161	1198.2224	860.60803	292.5415	1167.259	1115.8083	209.75119	-1401.7064	1056.2975	194.0358	-1460.1311	1095.0468	162.16957	-1423.9099	1069.869	238.64838	-1425.9033	-1204.535	1686.0015	-1563.1874	-1129.1105	1688.3116	-1606.573	-1173.0901	1724.3767	-1581.9777	-1133.5028	1581.0469	-1603.4664	-1239.6621	1699.1946	1119.2334	-1309.3904	1698.8274	1071.7643	-1270.3516	1736.1742	1096.6476	-1244.6498	1593.7997	1106.4751	988.83905	1664.2366	1162.2725	957.2641	1700.603	1183.6898	922.16724	1662.1737	1214.661	939.78278	1659.3789	1159.9222	999.24664	1668.553	-1579.4971	1058.9167	1670.1587	-1518.6128	1025.0769	1708.0127	-1551.126	1059.308	1672.1973	-1585.6044	-542.0437	1144.1086	-298.2204	-545.74646	1145.1691	-213.92619	-544.15106	1181.5571	-260.92169	-575.82513	1142.4757	-262.80447	-496.08167	1146.1598	-258.86234																																														-1069.1088	209.53543	-1624.8431	-1074.8324	248.10796	-1624.2103	-1321.8047	231.38142	1025.0122	-1320.485	270.11758	1029.3445	848.40753	183.53816	1196.1699	852.15857	222.30191	1194.0958	1088.7008	202.59273	-1428.3191	1082.6873	240.89908	-1432.4977	-1171.9261	1687.0001	-1581.9445	-1170.7123	1648.019	-1581.9099	-1271.0054	1699.0294	1097.8955	-1271.6915	1660.0574	1099.205	953.01385	1705.498	1186.5728	973.01575	1733.5909	1168.3596	1026.5947	1669.2888	-1551.5924	1028.1223	1630.3217	-1552.0616	-543.70331	1144.584	-260.43692	-543.23114	1105.5901	-259.92569
581	4.8333333	-1038.2267	214.37518	-1644.1853	-1109.1899	203.1825	-1599.6449	-1063.6074	172.70241	-1625.4708	-1054.1621	262.04587	-1634.9471	-1353.0697	234.76889	1003.9414	-1281.2921	226.98402	1052.4181	-1323.0221	194.17784	1020.765	-1284.5577	287.88696	1052.714	813.94965	187.62521	1209.4197	892.19702	178.43645	1179.2887	844.33813	145.4939	1198.1887	860.5564	292.42899	1167.2081	1115.7997	209.72867	-1401.7008	1056.2606	194.00116	-1460.1317	1094.9362	162.04193	-1423.9227	1069.8673	238.63739	-1425.9518	-1204.536	1685.9968	-1563.1826	-1129.1188	1688.3171	-1606.5853	-1173.0953	1724.3777	-1581.9761	-1133.5168	1581.0658	-1603.4949	-1239.6672	1699.2034	1119.2318	-1309.3776	1698.7777	1071.7402	-1270.3157	1736.1206	1096.6274	-1244.6017	1594.1163	1106.4395	988.87463	1664.2826	1162.2706	957.57147	1700.3799	1183.7015	922.10754	1662.248	1214.7504	939.81543	1659.396	1159.9298	999.25482	1668.5638	-1579.5037	1058.9235	1670.1632	-1518.6243	1025.0806	1708.0083	-1551.1219	1059.3171	1672.213	-1585.6147	-542.04022	1144.106	-298.22781	-545.74506	1145.1606	-213.92072	-544.15625	1181.567	-260.91962	-575.79346	1142.5485	-262.76019	-496.08801	1146.1611	-258.8703																																														-1069.0266	209.51726	-1624.8535	-1074.7053	248.09616	-1624.2065	-1321.8602	231.38396	1025.0194	-1320.6506	270.11282	1029.448	848.07904	183.61731	1196.2773	851.88293	222.38266	1194.3339	1088.6125	202.54709	-1428.3818	1082.6321	240.8544	-1432.599	-1171.9291	1686.9999	-1581.9478	-1170.7128	1648.0189	-1581.9185	-1270.9631	1699.0122	1097.9108	-1271.6434	1660.0414	1099.2584	953.01575	1705.6332	1186.8203	973.05688	1733.7645	1168.7102	1026.6047	1669.2969	-1551.5986	1028.139	1630.33	-1552.0787	-543.70093	1144.5787	-260.43683	-543.22095	1105.585	-259.92786
582	4.8416667	-1038.2255	214.38902	-1644.189	-1109.2739	203.38301	-1599.5706	-1063.6554	172.69086	-1625.454	-1054.1627	262.06189	-1634.9867	-1352.967	234.77251	1003.9139	-1281.3624	226.89284	1052.3818	-1323.0535	194.0817	1020.8688	-1284.5441	287.9278	1052.691	813.98688	187.59792	1209.5083	892.38196	178.44592	1179.2014	844.65533	145.13237	1198.2438	860.52008	292.35776	1167.1503	1115.7466	209.44887	-1401.5708	1056.2944	194.08258	-1460.1818	1095.0375	162.1801	-1423.8984	1069.8582	238.59973	-1425.9316	-1204.5353	1685.9985	-1563.1836	-1129.073	1688.2131	-1606.0823	-1173.0952	1724.3575	-1581.9634	-1133.5073	1581.0681	-1603.4911	-1239.6426	1699.1713	1119.2228	-1309.4071	1698.8337	1071.7678	-1270.3342	1736.1519	1096.6436	-1244.6882	1593.8176	1106.542	988.86536	1664.2589	1162.2917	957.20544	1700.6891	1183.6075	921.98016	1662.0837	1214.7004	939.79987	1659.3408	1159.8997	999.25989	1668.5505	-1579.4778	1058.7793	1669.9824	-1518.6453	1025.0881	1708.0074	-1551.1216	1059.3176	1672.2288	-1585.6296	-542.04749	1144.1156	-298.22333	-545.74823	1145.1627	-213.9227	-544.15137	1181.5653	-260.91571	-575.75195	1142.5092	-262.7601	-496.09598	1146.1415	-258.85547																																														-1069.0033	209.62125	-1624.8602	-1074.5922	248.21375	-1624.24	-1321.7703	231.33949	1025.0303	-1320.4364	270.07581	1029.3569	848.36169	183.58492	1196.2192	852.09833	222.35181	1194.1782	1088.7988	202.48384	-1428.1371	1082.8652	240.81841	-1432.1686	-1171.8761	1686.9569	-1581.7495	-1170.6056	1647.9783	-1581.5266	-1271.0029	1699.0194	1097.8909	-1271.7048	1660.0477	1099.2	952.97919	1705.5519	1186.4529	972.99469	1733.6184	1168.2141	1026.5234	1669.2063	-1551.6125	1027.9651	1630.2361	-1552.1058	-543.7063	1144.5847	-260.4368	-543.237	1105.5909	-259.93182
